<mxfile host="app.diagrams.net" modified="2024-01-06T03:57:18.541Z" agent="Mozilla/5.0 (Windows NT 10.0; Win64; x64) AppleWebKit/537.36 (KHTML, like Gecko) Chrome/120.0.0.0 Safari/537.36" etag="WDavACHpitH2UFEeaQdi" version="22.1.17" type="github">
  <diagram name="Page-1" id="2YBvvXClWsGukQMizWep">
    <mxGraphModel dx="1728" dy="915" grid="1" gridSize="10" guides="1" tooltips="1" connect="1" arrows="1" fold="1" page="1" pageScale="1" pageWidth="850" pageHeight="1100" math="0" shadow="0">
      <root>
        <mxCell id="0" />
        <mxCell id="1" parent="0" />
        <mxCell id="A0iOIshMNF5UCfsPNKWk-53" style="edgeStyle=orthogonalEdgeStyle;rounded=0;orthogonalLoop=1;jettySize=auto;html=1;entryX=0.5;entryY=0;entryDx=0;entryDy=0;" edge="1" parent="1" source="A0iOIshMNF5UCfsPNKWk-35" target="A0iOIshMNF5UCfsPNKWk-50">
          <mxGeometry relative="1" as="geometry" />
        </mxCell>
        <mxCell id="A0iOIshMNF5UCfsPNKWk-35" value="开始" style="ellipse;whiteSpace=wrap;html=1;" vertex="1" parent="1">
          <mxGeometry x="85" y="10" width="120" height="80" as="geometry" />
        </mxCell>
        <mxCell id="A0iOIshMNF5UCfsPNKWk-39" style="edgeStyle=orthogonalEdgeStyle;rounded=0;orthogonalLoop=1;jettySize=auto;html=1;entryX=0.5;entryY=0;entryDx=0;entryDy=0;" edge="1" parent="1" source="A0iOIshMNF5UCfsPNKWk-36" target="A0iOIshMNF5UCfsPNKWk-37">
          <mxGeometry relative="1" as="geometry" />
        </mxCell>
        <mxCell id="A0iOIshMNF5UCfsPNKWk-36" value="&lt;div style=&quot;color: rgb(171, 178, 191); background-color: rgb(40, 44, 52); font-family: Consolas, &amp;quot;Source Code Pro&amp;quot;, &amp;quot;Source Code Pro&amp;quot;, Consolas, &amp;quot;Courier New&amp;quot;, monospace; font-size: 22px; line-height: 30px;&quot;&gt;cef_execute_process&lt;/div&gt;" style="rounded=0;whiteSpace=wrap;html=1;" vertex="1" parent="1">
          <mxGeometry x="420" y="160" width="255" height="60" as="geometry" />
        </mxCell>
        <mxCell id="A0iOIshMNF5UCfsPNKWk-47" style="edgeStyle=orthogonalEdgeStyle;rounded=0;orthogonalLoop=1;jettySize=auto;html=1;" edge="1" parent="1" source="A0iOIshMNF5UCfsPNKWk-37" target="A0iOIshMNF5UCfsPNKWk-44">
          <mxGeometry relative="1" as="geometry" />
        </mxCell>
        <mxCell id="A0iOIshMNF5UCfsPNKWk-48" value="否" style="edgeLabel;html=1;align=center;verticalAlign=middle;resizable=0;points=[];" vertex="1" connectable="0" parent="A0iOIshMNF5UCfsPNKWk-47">
          <mxGeometry x="-0.2041" y="-2" relative="1" as="geometry">
            <mxPoint as="offset" />
          </mxGeometry>
        </mxCell>
        <mxCell id="A0iOIshMNF5UCfsPNKWk-83" style="edgeStyle=orthogonalEdgeStyle;rounded=0;orthogonalLoop=1;jettySize=auto;html=1;entryX=0;entryY=0.5;entryDx=0;entryDy=0;" edge="1" parent="1" source="A0iOIshMNF5UCfsPNKWk-37" target="A0iOIshMNF5UCfsPNKWk-82">
          <mxGeometry relative="1" as="geometry" />
        </mxCell>
        <mxCell id="A0iOIshMNF5UCfsPNKWk-37" value="是否是&lt;br&gt;子进程" style="rhombus;whiteSpace=wrap;html=1;" vertex="1" parent="1">
          <mxGeometry x="507" y="260" width="80" height="80" as="geometry" />
        </mxCell>
        <mxCell id="A0iOIshMNF5UCfsPNKWk-73" style="edgeStyle=orthogonalEdgeStyle;rounded=0;orthogonalLoop=1;jettySize=auto;html=1;entryX=0.5;entryY=0;entryDx=0;entryDy=0;" edge="1" parent="1" source="A0iOIshMNF5UCfsPNKWk-40" target="A0iOIshMNF5UCfsPNKWk-43">
          <mxGeometry relative="1" as="geometry" />
        </mxCell>
        <mxCell id="A0iOIshMNF5UCfsPNKWk-40" value="&lt;div style=&quot;color: rgb(171, 178, 191); background-color: rgb(40, 44, 52); font-family: Consolas, &amp;quot;Source Code Pro&amp;quot;, &amp;quot;Source Code Pro&amp;quot;, Consolas, &amp;quot;Courier New&amp;quot;, monospace; font-size: 22px; line-height: 30px;&quot;&gt;&lt;div style=&quot;line-height: 30px;&quot;&gt;cef_initialize&lt;/div&gt;&lt;/div&gt;" style="rounded=0;whiteSpace=wrap;html=1;" vertex="1" parent="1">
          <mxGeometry x="420" y="550" width="255" height="60" as="geometry" />
        </mxCell>
        <mxCell id="A0iOIshMNF5UCfsPNKWk-80" style="edgeStyle=orthogonalEdgeStyle;rounded=0;orthogonalLoop=1;jettySize=auto;html=1;entryX=0;entryY=0.5;entryDx=0;entryDy=0;" edge="1" parent="1" source="A0iOIshMNF5UCfsPNKWk-43" target="A0iOIshMNF5UCfsPNKWk-79">
          <mxGeometry relative="1" as="geometry" />
        </mxCell>
        <mxCell id="A0iOIshMNF5UCfsPNKWk-43" value="do something" style="whiteSpace=wrap;html=1;aspect=fixed;" vertex="1" parent="1">
          <mxGeometry x="508" y="660" width="80" height="80" as="geometry" />
        </mxCell>
        <mxCell id="A0iOIshMNF5UCfsPNKWk-49" style="edgeStyle=orthogonalEdgeStyle;rounded=0;orthogonalLoop=1;jettySize=auto;html=1;entryX=0.5;entryY=0;entryDx=0;entryDy=0;" edge="1" parent="1" source="A0iOIshMNF5UCfsPNKWk-44" target="A0iOIshMNF5UCfsPNKWk-40">
          <mxGeometry relative="1" as="geometry" />
        </mxCell>
        <mxCell id="A0iOIshMNF5UCfsPNKWk-44" value="do something" style="whiteSpace=wrap;html=1;aspect=fixed;" vertex="1" parent="1">
          <mxGeometry x="507" y="420" width="80" height="80" as="geometry" />
        </mxCell>
        <mxCell id="A0iOIshMNF5UCfsPNKWk-54" style="edgeStyle=orthogonalEdgeStyle;rounded=0;orthogonalLoop=1;jettySize=auto;html=1;entryX=0.5;entryY=0;entryDx=0;entryDy=0;" edge="1" parent="1" source="A0iOIshMNF5UCfsPNKWk-50" target="A0iOIshMNF5UCfsPNKWk-51">
          <mxGeometry relative="1" as="geometry" />
        </mxCell>
        <mxCell id="A0iOIshMNF5UCfsPNKWk-50" value="&lt;div style=&quot;color: rgb(171, 178, 191); background-color: rgb(40, 44, 52); font-family: Consolas, &amp;quot;Source Code Pro&amp;quot;, &amp;quot;Source Code Pro&amp;quot;, Consolas, &amp;quot;Courier New&amp;quot;, monospace; font-size: 22px; line-height: 30px;&quot;&gt;args&lt;/div&gt;" style="rounded=1;whiteSpace=wrap;html=1;" vertex="1" parent="1">
          <mxGeometry x="85" y="160" width="120" height="60" as="geometry" />
        </mxCell>
        <mxCell id="A0iOIshMNF5UCfsPNKWk-55" style="edgeStyle=orthogonalEdgeStyle;rounded=0;orthogonalLoop=1;jettySize=auto;html=1;" edge="1" parent="1" source="A0iOIshMNF5UCfsPNKWk-51" target="A0iOIshMNF5UCfsPNKWk-52">
          <mxGeometry relative="1" as="geometry" />
        </mxCell>
        <mxCell id="A0iOIshMNF5UCfsPNKWk-51" value="&lt;div style=&quot;color: rgb(171, 178, 191); background-color: rgb(40, 44, 52); font-family: Consolas, &amp;quot;Source Code Pro&amp;quot;, &amp;quot;Source Code Pro&amp;quot;, Consolas, &amp;quot;Courier New&amp;quot;, monospace; font-size: 22px; line-height: 30px;&quot;&gt;&lt;div style=&quot;line-height: 30px;&quot;&gt;cef_app_t&lt;/div&gt;&lt;/div&gt;" style="rounded=1;whiteSpace=wrap;html=1;" vertex="1" parent="1">
          <mxGeometry x="85" y="250" width="120" height="60" as="geometry" />
        </mxCell>
        <mxCell id="A0iOIshMNF5UCfsPNKWk-63" style="edgeStyle=orthogonalEdgeStyle;rounded=0;orthogonalLoop=1;jettySize=auto;html=1;entryX=0;entryY=0.5;entryDx=0;entryDy=0;" edge="1" parent="1" source="A0iOIshMNF5UCfsPNKWk-52" target="A0iOIshMNF5UCfsPNKWk-36">
          <mxGeometry relative="1" as="geometry" />
        </mxCell>
        <mxCell id="A0iOIshMNF5UCfsPNKWk-52" value="&lt;div style=&quot;color: rgb(171, 178, 191); background-color: rgb(40, 44, 52); font-family: Consolas, &amp;quot;Source Code Pro&amp;quot;, &amp;quot;Source Code Pro&amp;quot;, Consolas, &amp;quot;Courier New&amp;quot;, monospace; font-size: 22px; line-height: 30px;&quot;&gt;&lt;div style=&quot;line-height: 30px;&quot;&gt;windows_sandbox_info&lt;/div&gt;&lt;/div&gt;" style="rounded=1;whiteSpace=wrap;html=1;" vertex="1" parent="1">
          <mxGeometry x="10" y="340" width="270" height="60" as="geometry" />
        </mxCell>
        <mxCell id="A0iOIshMNF5UCfsPNKWk-71" value="检查命令行参数" style="shape=callout;whiteSpace=wrap;html=1;perimeter=calloutPerimeter;position2=0.75;" vertex="1" parent="1">
          <mxGeometry x="380" y="80" width="120" height="80" as="geometry" />
        </mxCell>
        <mxCell id="A0iOIshMNF5UCfsPNKWk-77" style="edgeStyle=orthogonalEdgeStyle;rounded=0;orthogonalLoop=1;jettySize=auto;html=1;" edge="1" parent="1" source="A0iOIshMNF5UCfsPNKWk-74" target="A0iOIshMNF5UCfsPNKWk-76">
          <mxGeometry relative="1" as="geometry">
            <mxPoint x="548" y="1150" as="targetPoint" />
          </mxGeometry>
        </mxCell>
        <mxCell id="A0iOIshMNF5UCfsPNKWk-74" value="&lt;div style=&quot;color: rgb(171, 178, 191); background-color: rgb(40, 44, 52); font-family: Consolas, &amp;quot;Source Code Pro&amp;quot;, &amp;quot;Source Code Pro&amp;quot;, Consolas, &amp;quot;Courier New&amp;quot;, monospace; font-size: 22px; line-height: 30px;&quot;&gt;&lt;div style=&quot;line-height: 30px;&quot;&gt;&lt;div style=&quot;line-height: 30px;&quot;&gt;cef_run_message_loop&lt;/div&gt;&lt;/div&gt;&lt;/div&gt;" style="rounded=0;whiteSpace=wrap;html=1;" vertex="1" parent="1">
          <mxGeometry x="420.5" y="1070" width="255" height="60" as="geometry" />
        </mxCell>
        <mxCell id="A0iOIshMNF5UCfsPNKWk-76" value="end" style="ellipse;shape=doubleEllipse;whiteSpace=wrap;html=1;" vertex="1" parent="1">
          <mxGeometry x="497.5" y="1200" width="100" height="60" as="geometry" />
        </mxCell>
        <mxCell id="A0iOIshMNF5UCfsPNKWk-78" value="创建 browser 对象" style="shape=callout;whiteSpace=wrap;html=1;perimeter=calloutPerimeter;position2=0.58;" vertex="1" parent="1">
          <mxGeometry x="910" y="590" width="120" height="80" as="geometry" />
        </mxCell>
        <mxCell id="A0iOIshMNF5UCfsPNKWk-92" style="edgeStyle=orthogonalEdgeStyle;rounded=0;orthogonalLoop=1;jettySize=auto;html=1;entryX=0.5;entryY=0;entryDx=0;entryDy=0;" edge="1" parent="1" source="A0iOIshMNF5UCfsPNKWk-79" target="A0iOIshMNF5UCfsPNKWk-91">
          <mxGeometry relative="1" as="geometry" />
        </mxCell>
        <mxCell id="A0iOIshMNF5UCfsPNKWk-79" value="&lt;div style=&quot;color: rgb(171, 178, 191); background-color: rgb(40, 44, 52); font-family: Consolas, &amp;quot;Source Code Pro&amp;quot;, &amp;quot;Source Code Pro&amp;quot;, Consolas, &amp;quot;Courier New&amp;quot;, monospace; font-size: 22px; line-height: 30px;&quot;&gt;&lt;div style=&quot;line-height: 30px;&quot;&gt;&lt;div style=&quot;line-height: 30px;&quot;&gt;&lt;div style=&quot;line-height: 30px;&quot;&gt;cef_browser_host_create_browser&lt;/div&gt;&lt;/div&gt;&lt;/div&gt;&lt;/div&gt;" style="rounded=0;whiteSpace=wrap;html=1;" vertex="1" parent="1">
          <mxGeometry x="760" y="670" width="400" height="60" as="geometry" />
        </mxCell>
        <mxCell id="A0iOIshMNF5UCfsPNKWk-90" style="edgeStyle=orthogonalEdgeStyle;rounded=0;orthogonalLoop=1;jettySize=auto;html=1;entryX=0;entryY=0.5;entryDx=0;entryDy=0;" edge="1" parent="1" source="A0iOIshMNF5UCfsPNKWk-82" target="A0iOIshMNF5UCfsPNKWk-86">
          <mxGeometry relative="1" as="geometry" />
        </mxCell>
        <mxCell id="A0iOIshMNF5UCfsPNKWk-82" value="&lt;div style=&quot;color: rgb(171, 178, 191); background-color: rgb(40, 44, 52); font-family: Consolas, &amp;quot;Source Code Pro&amp;quot;, &amp;quot;Source Code Pro&amp;quot;, Consolas, &amp;quot;Courier New&amp;quot;, monospace; font-size: 22px; line-height: 30px;&quot;&gt;&lt;div style=&quot;line-height: 30px;&quot;&gt;get_render_process_handler&lt;/div&gt;&lt;/div&gt;" style="rounded=0;whiteSpace=wrap;html=1;" vertex="1" parent="1">
          <mxGeometry x="820" y="270" width="340" height="60" as="geometry" />
        </mxCell>
        <mxCell id="A0iOIshMNF5UCfsPNKWk-84" value="懂的都懂" style="shape=callout;whiteSpace=wrap;html=1;perimeter=calloutPerimeter;position2=0.58;" vertex="1" parent="1">
          <mxGeometry x="920" y="190" width="120" height="80" as="geometry" />
        </mxCell>
        <mxCell id="A0iOIshMNF5UCfsPNKWk-89" value="&lt;div style=&quot;color: rgb(171, 178, 191); background-color: rgb(40, 44, 52); font-family: Consolas, &amp;quot;Source Code Pro&amp;quot;, &amp;quot;Source Code Pro&amp;quot;, Consolas, &amp;quot;Courier New&amp;quot;, monospace; font-weight: normal; font-size: 22px; line-height: 30px;&quot;&gt;cef_render_process_handler_t&lt;/div&gt;" style="swimlane;whiteSpace=wrap;html=1;startSize=50;" vertex="1" parent="1">
          <mxGeometry x="1260" y="40" width="460" height="570" as="geometry" />
        </mxCell>
        <mxCell id="A0iOIshMNF5UCfsPNKWk-85" value="&lt;div style=&quot;color: rgb(171, 178, 191); background-color: rgb(40, 44, 52); font-family: Consolas, &amp;quot;Source Code Pro&amp;quot;, &amp;quot;Source Code Pro&amp;quot;, Consolas, &amp;quot;Courier New&amp;quot;, monospace; font-size: 22px; line-height: 30px;&quot;&gt;&lt;div style=&quot;line-height: 30px;&quot;&gt;&lt;div style=&quot;line-height: 30px;&quot;&gt;on_web_kit_initialized&lt;/div&gt;&lt;/div&gt;&lt;/div&gt;" style="rounded=0;whiteSpace=wrap;html=1;" vertex="1" parent="A0iOIshMNF5UCfsPNKWk-89">
          <mxGeometry x="70" y="110" width="340" height="60" as="geometry" />
        </mxCell>
        <mxCell id="A0iOIshMNF5UCfsPNKWk-86" value="&lt;div style=&quot;color: rgb(171, 178, 191); background-color: rgb(40, 44, 52); font-family: Consolas, &amp;quot;Source Code Pro&amp;quot;, &amp;quot;Source Code Pro&amp;quot;, Consolas, &amp;quot;Courier New&amp;quot;, monospace; font-size: 22px; line-height: 30px;&quot;&gt;&lt;div style=&quot;line-height: 30px;&quot;&gt;&lt;div style=&quot;line-height: 30px;&quot;&gt;on_browser_created&lt;/div&gt;&lt;/div&gt;&lt;/div&gt;" style="rounded=0;whiteSpace=wrap;html=1;" vertex="1" parent="A0iOIshMNF5UCfsPNKWk-89">
          <mxGeometry x="70" y="210" width="340" height="60" as="geometry" />
        </mxCell>
        <mxCell id="A0iOIshMNF5UCfsPNKWk-87" value="&lt;div style=&quot;color: rgb(171, 178, 191); background-color: rgb(40, 44, 52); font-family: Consolas, &amp;quot;Source Code Pro&amp;quot;, &amp;quot;Source Code Pro&amp;quot;, Consolas, &amp;quot;Courier New&amp;quot;, monospace; font-size: 22px; line-height: 30px;&quot;&gt;&lt;div style=&quot;line-height: 30px;&quot;&gt;&lt;div style=&quot;line-height: 30px;&quot;&gt;on_context_created&lt;/div&gt;&lt;/div&gt;&lt;/div&gt;" style="rounded=0;whiteSpace=wrap;html=1;" vertex="1" parent="A0iOIshMNF5UCfsPNKWk-89">
          <mxGeometry x="70" y="320" width="340" height="60" as="geometry" />
        </mxCell>
        <mxCell id="A0iOIshMNF5UCfsPNKWk-88" value="&lt;div style=&quot;color: rgb(171, 178, 191); background-color: rgb(40, 44, 52); font-family: Consolas, &amp;quot;Source Code Pro&amp;quot;, &amp;quot;Source Code Pro&amp;quot;, Consolas, &amp;quot;Courier New&amp;quot;, monospace; font-size: 22px; line-height: 30px;&quot;&gt;&lt;div style=&quot;line-height: 30px;&quot;&gt;&lt;div style=&quot;line-height: 30px;&quot;&gt;&lt;div style=&quot;line-height: 30px;&quot;&gt;on_process_message_received&lt;/div&gt;&lt;/div&gt;&lt;/div&gt;&lt;/div&gt;" style="rounded=0;whiteSpace=wrap;html=1;" vertex="1" parent="A0iOIshMNF5UCfsPNKWk-89">
          <mxGeometry x="70" y="470" width="340" height="60" as="geometry" />
        </mxCell>
        <mxCell id="A0iOIshMNF5UCfsPNKWk-93" style="edgeStyle=orthogonalEdgeStyle;rounded=0;orthogonalLoop=1;jettySize=auto;html=1;entryX=0.5;entryY=0;entryDx=0;entryDy=0;" edge="1" parent="1" source="A0iOIshMNF5UCfsPNKWk-91" target="A0iOIshMNF5UCfsPNKWk-74">
          <mxGeometry relative="1" as="geometry" />
        </mxCell>
        <mxCell id="A0iOIshMNF5UCfsPNKWk-91" value="do something" style="whiteSpace=wrap;html=1;aspect=fixed;" vertex="1" parent="1">
          <mxGeometry x="920" y="850" width="80" height="80" as="geometry" />
        </mxCell>
      </root>
    </mxGraphModel>
  </diagram>
</mxfile>
